<?xml version="1.0" encoding="utf-8"?>
<!-- Generator: Adobe Illustrator 27.0.0, SVG Export Plug-In . SVG Version: 6.00 Build 0)  -->
<!DOCTYPE svg PUBLIC "-//W3C//DTD SVG 1.1//EN" "http://www.w3.org/Graphics/SVG/1.1/DTD/svg11.dtd" [
	<!ENTITY ns_extend "http://ns.adobe.com/Extensibility/1.0/">
	<!ENTITY ns_ai "http://ns.adobe.com/AdobeIllustrator/10.0/">
	<!ENTITY ns_graphs "http://ns.adobe.com/Graphs/1.0/">
	<!ENTITY ns_vars "http://ns.adobe.com/Variables/1.0/">
	<!ENTITY ns_imrep "http://ns.adobe.com/ImageReplacement/1.0/">
	<!ENTITY ns_sfw "http://ns.adobe.com/SaveForWeb/1.0/">
	<!ENTITY ns_custom "http://ns.adobe.com/GenericCustomNamespace/1.0/">
	<!ENTITY ns_adobe_xpath "http://ns.adobe.com/XPath/1.0/">
]>
<svg version="1.1" id="Layer_1" xmlnsX="&ns_extend;" xmlnsI="&ns_ai;" xmlnsGraph="&ns_graphs;"
	 xmlns="http://www.w3.org/2000/svg" xmlnsXlink="http://www.w3.org/1999/xlink" x="0px" y="0px" viewBox="0 0 200 47"
	 style="enable-background:new 0 0 200 47;" xml:space="preserve">
<style type="text/css">
	.st0{fill:#5C3CBF;}
	.st1{fill:#492BAA;}
	.st2{fill:#9E77EC;}
	.st3{fill:#232323;}
</style>
<metadata>
	<sfw  xmlns="&ns_sfw;">
		<slices></slices>
		<sliceSourceBounds  bottomLeftOrigin="true" height="41.9" width="196.5" x="1.8" y="-44.4"></sliceSourceBounds>
	</sfw>
</metadata>
<g>
	<g>
		<path class="st0" d="M35.9,8.5c-3.3-3.4-7.9-5.6-12.9-6v4.7c3.5,0.3,6.7,1.8,9.1,4.2C32.9,10,34.3,8.9,35.9,8.5z"/>
		<path class="st0" d="M37,19.2c-0.2,0-0.3,0-0.5,0c0.2,1.1,0.4,2.2,0.4,3.3c0,2.3-0.5,4.4-1.4,6.4l4.1,2.4c1.3-2.6,2-5.6,2-8.8
			c0-1.7-0.2-3.4-0.6-5C40,18.5,38.5,19.2,37,19.2z"/>
	</g>
	<g>
		<path class="st1" d="M16.4,40c0-1.1,0.3-2.2,0.9-3c-3.3-1-6.1-3.1-8.1-5.8l-4.1,2.4c2.7,4,6.8,7,11.6,8.2
			C16.5,41.2,16.4,40.6,16.4,40z"/>
		<path class="st1" d="M34.1,31.2c-1.9,2.7-4.7,4.8-7.9,5.8c0.6,0.9,1,1.9,1,3.1c0,0.6-0.1,1.1-0.3,1.6c4.7-1.3,8.7-4.2,11.3-8.1
			L34.1,31.2z"/>
	</g>
	<g>
		<path class="st2" d="M6.9,19c-0.1,0-0.2,0-0.3,0c-1.6,0-3.1-0.7-4.1-1.9c-0.5,1.7-0.7,3.5-0.7,5.3c0,3.1,0.7,6.1,2,8.8l4.1-2.4
			c-0.9-1.9-1.4-4.1-1.4-6.4C6.5,21.3,6.6,20.1,6.9,19z"/>
		<path class="st2" d="M7.6,8.4c1.7,0.3,3.1,1.4,3.8,2.9c2.4-2.2,5.5-3.7,9-4V2.6C15.3,2.9,10.9,5.1,7.6,8.4z"/>
	</g>
	<circle class="st0" cx="37" cy="13.8" r="4.4"/>
	<circle class="st1" cx="21.8" cy="40" r="4.4"/>
	<circle class="st2" cx="6.6" cy="13.7" r="4.4"/>
	<path class="st2" d="M25.5,15.9h-6.7c-3,0-5.5,2.5-5.5,5.5v5.5h12.1c3,0,5.5-2.5,5.5-5.5C31,18.4,28.5,15.9,25.5,15.9z M17.9,22.6
		c-0.7,0-1.2-0.5-1.2-1.2c0-0.7,0.5-1.2,1.2-1.2c0.7,0,1.2,0.5,1.2,1.2C19.1,22.1,18.6,22.6,17.9,22.6z M22.2,22.6
		c-0.7,0-1.2-0.5-1.2-1.2c0-0.7,0.5-1.2,1.2-1.2c0.7,0,1.2,0.5,1.2,1.2C23.4,22.1,22.8,22.6,22.2,22.6z M26.4,22.6
		c-0.7,0-1.2-0.5-1.2-1.2c0-0.7,0.5-1.2,1.2-1.2c0.7,0,1.2,0.5,1.2,1.2C27.6,22.1,27.1,22.6,26.4,22.6z"/>
	<path class="st3" d="M48.4,31.8V13.7h4l5.5,13.1l5.5-13.1h3.9v18.1h-3.1v-8.9l0.1-5.1l-0.5,1.4l-4.6,11.5h-2.9L51.8,19l-0.5-1.4
		l0.1,5.2v8.9H48.4z"/>
	<path class="st3" d="M77.1,32c-2.2,0-3.9-0.6-5.1-1.9c-1.2-1.3-1.8-3-1.8-5.2c0-2.2,0.6-3.9,1.7-5.2c1.1-1.3,2.7-1.9,4.7-1.9
		c1.9,0,3.3,0.6,4.4,1.8c1,1.2,1.6,2.7,1.6,4.7c0,0.1,0,0.4,0,0.7c0,0.3,0,0.5,0,0.7h-9c0,1.3,0.4,2.3,1,2.9c0.7,0.7,1.6,1,2.7,1
		c1.5,0,2.9-0.4,4.3-1.2l0.5,2.3C80.6,31.6,79,32,77.1,32z M73.5,23.6h5.9c0-1.1-0.3-2-0.8-2.5c-0.5-0.6-1.2-0.9-2.1-0.9
		c-0.8,0-1.5,0.3-2.1,0.9C73.9,21.6,73.6,22.5,73.5,23.6z"/>
	<path class="st3" d="M91.4,32c-2.2,0-3.9-0.6-5.1-1.9c-1.2-1.3-1.8-3-1.8-5.2c0-2.2,0.6-3.9,1.7-5.2c1.1-1.3,2.7-1.9,4.7-1.9
		c1.9,0,3.3,0.6,4.4,1.8c1,1.2,1.6,2.7,1.6,4.7c0,0.1,0,0.4,0,0.7c0,0.3,0,0.5,0,0.7h-9c0,1.3,0.4,2.3,1,2.9c0.7,0.7,1.6,1,2.7,1
		c1.5,0,2.9-0.4,4.3-1.2l0.5,2.3C94.9,31.6,93.3,32,91.4,32z M87.8,23.6h5.9c0-1.1-0.3-2-0.8-2.5c-0.5-0.6-1.2-0.9-2.1-0.9
		c-0.8,0-1.5,0.3-2.1,0.9C88.2,21.6,87.9,22.5,87.8,23.6z"/>
	<path class="st3" d="M104.9,32c-0.9,0-1.7-0.1-2.3-0.3c-0.6-0.2-1.1-0.6-1.4-1c-0.3-0.5-0.6-1-0.7-1.7c-0.1-0.6-0.2-1.4-0.2-2.4
		v-6.4h-2.2l0.1-1.8l2.3-0.2l1-3.7l2,0v3.7h3.4v2h-3.4v6.5c0,1,0.1,1.8,0.4,2.2c0.3,0.4,0.8,0.7,1.6,0.7c0.5,0,1,0,1.5-0.1l0.1,2.3
		c0,0-0.1,0-0.3,0.1c-0.2,0-0.4,0.1-0.5,0.1c-0.2,0-0.4,0.1-0.6,0.1C105.3,31.9,105.1,32,104.9,32z"/>
	<path class="st3" d="M109.4,31.8V18.2h3.2v13.6H109.4z"/>
	<path class="st3" d="M116,31.8V18.2h2.6l0.4,1.7c1.4-1.4,2.9-2.1,4.6-2.1c1.6,0,2.8,0.5,3.6,1.4c0.8,0.9,1.2,2.2,1.2,4v8.6h-3.2
		v-8.2c0-1.1-0.2-1.9-0.5-2.5c-0.3-0.5-1-0.8-1.9-0.8c-0.7,0-1.3,0.2-1.9,0.5s-1,0.8-1.3,1.4c-0.2,0.6-0.2,1.6-0.2,3v6.6H116z"/>
	<path class="st3" d="M134.2,37.9l-0.2-2.6h1.6c1.9,0,3.2-0.3,4-0.8c0.8-0.5,1.1-1.4,1.1-2.8c0-0.6,0-1.1-0.1-1.8
		c-0.2,0.3-0.4,0.5-0.6,0.7c-0.2,0.2-0.4,0.4-0.7,0.6c-0.3,0.2-0.6,0.3-1.1,0.4c-0.4,0.1-0.9,0.1-1.4,0.1c-1.8,0-3.3-0.6-4.4-1.9
		c-1.2-1.3-1.7-3-1.7-5c0-1.1,0.2-2.1,0.5-3c0.3-0.9,0.8-1.6,1.3-2.2c0.6-0.6,1.2-1,1.9-1.3c0.7-0.3,1.5-0.5,2.3-0.5
		c1.8,0,3.2,0.7,4.1,2l0.2-1.7h2.9v12.6c0,0.7,0,1.3-0.1,1.8c-0.1,0.5-0.2,1.1-0.3,1.6c-0.2,0.5-0.4,0.9-0.6,1.3
		c-0.3,0.4-0.6,0.7-1,1c-0.4,0.3-0.9,0.6-1.4,0.7c-0.5,0.2-1.2,0.3-1.9,0.4c-0.7,0.1-1.5,0.2-2.4,0.2H134.2z M137.5,29.5
		c2.2,0,3.4-1.5,3.4-4.5v-0.5c0-1.3-0.3-2.4-0.8-3.1c-0.5-0.7-1.3-1.1-2.4-1.1c-1.2,0-2.1,0.4-2.7,1.2c-0.6,0.8-0.9,1.9-0.9,3.3
		c0,1.3,0.3,2.4,0.9,3.3C135.6,29.1,136.4,29.5,137.5,29.5z"/>
	<path class="st3" d="M150.4,31.8V13.6h6c1.4,0,2.6,0.2,3.7,0.5c1,0.4,1.8,1,2.4,1.8c0.6,0.8,0.9,1.9,0.9,3.1c0,0.9-0.1,1.6-0.3,2.3
		c-0.2,0.7-0.6,1.3-1.1,1.8c-0.5,0.5-1.2,1-2.2,1.3c-0.9,0.3-2,0.4-3.4,0.4c-1.1,0-2,0-2.7-0.1v7H150.4z M156.1,22.5
		c0.7,0,1.3-0.1,1.8-0.2c0.5-0.1,0.9-0.3,1.2-0.5c0.3-0.2,0.5-0.5,0.7-0.8c0.2-0.3,0.3-0.6,0.3-0.9c0.1-0.3,0.1-0.6,0.1-1
		c0-1-0.3-1.8-1-2.3c-0.6-0.5-1.5-0.8-2.7-0.8h-2.8v6.3C153.8,22.5,154.6,22.5,156.1,22.5z"/>
	<path class="st3" d="M170.4,32c-0.9,0-1.7-0.1-2.3-0.3c-0.6-0.2-1.1-0.6-1.5-1c-0.4-0.5-0.6-1-0.7-1.7c-0.1-0.7-0.2-1.5-0.2-2.5
		V13.2l3.2-0.2v13.4c0,1.2,0.1,2,0.4,2.5c0.3,0.4,0.8,0.6,1.7,0.6c0.4,0,0.9,0,1.6-0.1l0.1,2.3c0,0-0.1,0-0.3,0.1
		c-0.2,0-0.4,0.1-0.6,0.1c-0.2,0-0.4,0.1-0.7,0.1C170.8,31.9,170.6,32,170.4,32z"/>
	<path class="st3" d="M184.1,30.7c-1.1,0.9-2.5,1.3-4.3,1.3c-1.8,0-3.2-0.4-4.3-1.3c-1.1-0.9-1.6-2.2-1.6-3.9v-8.6h3.2v8.5
		c0,1,0.2,1.7,0.6,2.2c0.4,0.5,1.1,0.7,2,0.7c0.9,0,1.6-0.2,2-0.7c0.4-0.4,0.6-1.2,0.6-2.2v-8.5h3.2v8.6
		C185.7,28.5,185.1,29.8,184.1,30.7z"/>
	<path class="st3" d="M193,32c-2,0-3.6-0.3-4.8-1l0.3-2.4c0.5,0.3,1.2,0.6,2.1,0.8c0.8,0.2,1.6,0.4,2.3,0.4c0.7,0,1.3-0.1,1.7-0.4
		s0.6-0.7,0.6-1.2c0-0.5-0.2-0.8-0.6-1.1c-0.4-0.3-1.1-0.6-2.1-1c-0.4-0.1-0.6-0.2-0.7-0.3c-1.3-0.5-2.2-1-2.7-1.6
		c-0.6-0.6-0.8-1.4-0.8-2.4c0-1.2,0.4-2.2,1.3-2.8s2.1-1,3.7-1c1.7,0,3.2,0.3,4.6,1l-0.8,2.2c-1.3-0.6-2.5-0.9-3.7-0.9
		c-0.7,0-1.2,0.1-1.5,0.3s-0.5,0.5-0.5,1c0,0.4,0.2,0.7,0.5,1c0.4,0.2,1,0.5,2.1,0.9c0,0,0.1,0,0.3,0.1c0.2,0.1,0.3,0.1,0.4,0.2
		c1.2,0.5,2.2,1,2.7,1.6s0.9,1.5,0.9,2.5c0,1.4-0.5,2.4-1.4,3.2C195.9,31.6,194.6,32,193,32z"/>
	<path class="st2" d="M111.7,12.2h-0.6c-1.3,0-2.4,1.1-2.4,2.4V17h3c1.3,0,2.4-1.1,2.4-2.4S113,12.2,111.7,12.2z M110.1,15.1
		c-0.2,0-0.4-0.2-0.4-0.4c0-0.2,0.2-0.4,0.4-0.4c0.2,0,0.4,0.2,0.4,0.4C110.4,14.9,110.3,15.1,110.1,15.1z M111.3,15.1
		c-0.2,0-0.4-0.2-0.4-0.4c0-0.2,0.2-0.4,0.4-0.4c0.2,0,0.4,0.2,0.4,0.4C111.7,14.9,111.6,15.1,111.3,15.1z M112.6,15.1
		c-0.2,0-0.4-0.2-0.4-0.4c0-0.2,0.2-0.4,0.4-0.4s0.4,0.2,0.4,0.4C113,14.9,112.9,15.1,112.6,15.1z"/>
</g>
</svg>
